<?xml version="1.0" encoding="UTF-8" standalone="no"?>
<!DOCTYPE svg PUBLIC "-//W3C//DTD SVG 1.1//EN"
 "http://www.w3.org/Graphics/SVG/1.1/DTD/svg11.dtd">
<!-- Generated by graphviz version 2.43.0 (0)
 -->
<!-- Title: %3 Pages: 1 -->
<svg width="847pt" height="836pt"
 viewBox="0.00 0.00 847.00 836.00" xmlns="http://www.w3.org/2000/svg" xmlns:xlink="http://www.w3.org/1999/xlink">
<g id="graph0" class="graph" transform="scale(1 1) rotate(0) translate(4 832)">
<title>%3</title>
<polygon fill="white" stroke="transparent" points="-4,4 -4,-832 843,-832 843,4 -4,4"/>
<!-- &#45;2020964348002851688 -->
<g id="node1" class="node">
<title>&#45;2020964348002851688</title>
<polygon fill="none" stroke="black" points="432,-828 245,-828 245,-792 432,-792 432,-828"/>
<text text-anchor="middle" x="338.5" y="-805" font-family="Helvetica,sans-Serif" font-size="20.00">ResetIndex(Sum)</text>
</g>
<!-- &#45;692347013530295805 -->
<g id="node2" class="node">
<title>&#45;692347013530295805</title>
<polygon fill="none" stroke="black" points="425.5,-756 251.5,-756 251.5,-720 425.5,-720 425.5,-756"/>
<text text-anchor="middle" x="338.5" y="-733" font-family="Helvetica,sans-Serif" font-size="20.00">Sum(Projection)</text>
</g>
<!-- &#45;692347013530295805&#45;&gt;&#45;2020964348002851688 -->
<g id="edge1" class="edge">
<title>&#45;692347013530295805&#45;&gt;&#45;2020964348002851688</title>
<path fill="none" stroke="black" d="M338.5,-756.3C338.5,-764.02 338.5,-773.29 338.5,-781.89"/>
<polygon fill="black" stroke="black" points="335,-781.9 338.5,-791.9 342,-781.9 335,-781.9"/>
</g>
<!-- 2751641504840832163 -->
<g id="node3" class="node">
<title>2751641504840832163</title>
<polygon fill="none" stroke="black" points="612.5,-684 64.5,-684 64.5,-648 612.5,-648 612.5,-684"/>
<text text-anchor="middle" x="338.5" y="-661" font-family="Helvetica,sans-Serif" font-size="20.00">Projection(Assign, [&#39;playcount&#39;, &#39;user_idx&#39;, &#39;track_idx&#39;])</text>
</g>
<!-- 2751641504840832163&#45;&gt;&#45;692347013530295805 -->
<g id="edge2" class="edge">
<title>2751641504840832163&#45;&gt;&#45;692347013530295805</title>
<path fill="none" stroke="black" d="M338.5,-684.3C338.5,-692.02 338.5,-701.29 338.5,-709.89"/>
<polygon fill="black" stroke="black" points="335,-709.9 338.5,-719.9 342,-709.9 335,-709.9"/>
</g>
<!-- &#45;407685482693614843 -->
<g id="node4" class="node">
<title>&#45;407685482693614843</title>
<polygon fill="none" stroke="black" points="677,-612 0,-612 0,-576 677,-576 677,-612"/>
<text text-anchor="middle" x="338.5" y="-589" font-family="Helvetica,sans-Serif" font-size="20.00">Assign(Categorize, user_idx, PropertyMap, track_idx, PropertyMap)</text>
</g>
<!-- &#45;407685482693614843&#45;&gt;2751641504840832163 -->
<g id="edge3" class="edge">
<title>&#45;407685482693614843&#45;&gt;2751641504840832163</title>
<path fill="none" stroke="black" d="M338.5,-612.3C338.5,-620.02 338.5,-629.29 338.5,-637.89"/>
<polygon fill="black" stroke="black" points="335,-637.9 338.5,-647.9 342,-637.9 335,-637.9"/>
</g>
<!-- &#45;443538035976630599 -->
<g id="node5" class="node">
<title>&#45;443538035976630599</title>
<polygon fill="none" stroke="black" points="466,-540 211,-540 211,-504 466,-504 466,-540"/>
<text text-anchor="middle" x="338.5" y="-517" font-family="Helvetica,sans-Serif" font-size="20.00">PropertyMap(Projection)</text>
</g>
<!-- &#45;443538035976630599&#45;&gt;&#45;407685482693614843 -->
<g id="edge4" class="edge">
<title>&#45;443538035976630599&#45;&gt;&#45;407685482693614843</title>
<path fill="none" stroke="black" d="M338.5,-540.3C338.5,-548.02 338.5,-557.29 338.5,-565.89"/>
<polygon fill="black" stroke="black" points="335,-565.9 338.5,-575.9 342,-565.9 335,-565.9"/>
</g>
<!-- 6342301704547600935 -->
<g id="node6" class="node">
<title>6342301704547600935</title>
<polygon fill="none" stroke="black" points="501.5,-468 175.5,-468 175.5,-432 501.5,-432 501.5,-468"/>
<text text-anchor="middle" x="338.5" y="-445" font-family="Helvetica,sans-Serif" font-size="20.00">Projection(Categorize, track_id)</text>
</g>
<!-- 6342301704547600935&#45;&gt;&#45;443538035976630599 -->
<g id="edge7" class="edge">
<title>6342301704547600935&#45;&gt;&#45;443538035976630599</title>
<path fill="none" stroke="black" d="M338.5,-468.3C338.5,-476.02 338.5,-485.29 338.5,-493.89"/>
<polygon fill="black" stroke="black" points="335,-493.9 338.5,-503.9 342,-493.9 335,-493.9"/>
</g>
<!-- &#45;2689628823800297946 -->
<g id="node7" class="node">
<title>&#45;2689628823800297946</title>
<polygon fill="none" stroke="black" points="440,-396 237,-396 237,-360 440,-360 440,-396"/>
<text text-anchor="middle" x="338.5" y="-373" font-family="Helvetica,sans-Serif" font-size="20.00">Categorize(Assign)</text>
</g>
<!-- &#45;2689628823800297946&#45;&gt;&#45;407685482693614843 -->
<g id="edge5" class="edge">
<title>&#45;2689628823800297946&#45;&gt;&#45;407685482693614843</title>
<path fill="none" stroke="black" d="M236.85,-388.29C209.71,-395.96 183.3,-409.25 166.5,-432 141.82,-465.43 200.27,-538.87 201.5,-540 216.82,-554.1 236.31,-564.59 255.74,-572.35"/>
<polygon fill="black" stroke="black" points="254.66,-575.68 265.25,-575.94 257.13,-569.14 254.66,-575.68"/>
</g>
<!-- &#45;2689628823800297946&#45;&gt;6342301704547600935 -->
<g id="edge8" class="edge">
<title>&#45;2689628823800297946&#45;&gt;6342301704547600935</title>
<path fill="none" stroke="black" d="M338.5,-396.3C338.5,-404.02 338.5,-413.29 338.5,-421.89"/>
<polygon fill="black" stroke="black" points="335,-421.9 338.5,-431.9 342,-421.9 335,-421.9"/>
</g>
<!-- 544848313724801336 -->
<g id="node14" class="node">
<title>544848313724801336</title>
<polygon fill="none" stroke="black" points="839,-468 520,-468 520,-432 839,-432 839,-468"/>
<text text-anchor="middle" x="679.5" y="-445" font-family="Helvetica,sans-Serif" font-size="20.00">Projection(Categorize, user_id)</text>
</g>
<!-- &#45;2689628823800297946&#45;&gt;544848313724801336 -->
<g id="edge16" class="edge">
<title>&#45;2689628823800297946&#45;&gt;544848313724801336</title>
<path fill="none" stroke="black" d="M421.48,-396.03C471.39,-406.28 535.04,-419.34 586.62,-429.93"/>
<polygon fill="black" stroke="black" points="585.94,-433.37 596.44,-431.95 587.35,-426.51 585.94,-433.37"/>
</g>
<!-- &#45;481267119369104845 -->
<g id="node8" class="node">
<title>&#45;481267119369104845</title>
<polygon fill="none" stroke="black" points="597,-324 80,-324 80,-288 597,-288 597,-324"/>
<text text-anchor="middle" x="338.5" y="-301" font-family="Helvetica,sans-Serif" font-size="20.00">Assign(ArrowStringConversion, playcount, AsType)</text>
</g>
<!-- &#45;481267119369104845&#45;&gt;&#45;2689628823800297946 -->
<g id="edge9" class="edge">
<title>&#45;481267119369104845&#45;&gt;&#45;2689628823800297946</title>
<path fill="none" stroke="black" d="M338.5,-324.3C338.5,-332.02 338.5,-341.29 338.5,-349.89"/>
<polygon fill="black" stroke="black" points="335,-349.9 338.5,-359.9 342,-349.9 335,-349.9"/>
</g>
<!-- &#45;2604967604825742496 -->
<g id="node9" class="node">
<title>&#45;2604967604825742496</title>
<polygon fill="none" stroke="black" points="569,-252 370,-252 370,-216 569,-216 569,-252"/>
<text text-anchor="middle" x="469.5" y="-229" font-family="Helvetica,sans-Serif" font-size="20.00">AsType(Projection)</text>
</g>
<!-- &#45;2604967604825742496&#45;&gt;&#45;481267119369104845 -->
<g id="edge11" class="edge">
<title>&#45;2604967604825742496&#45;&gt;&#45;481267119369104845</title>
<path fill="none" stroke="black" d="M437.45,-252.12C420.01,-261.45 398.23,-273.08 379.56,-283.06"/>
<polygon fill="black" stroke="black" points="377.84,-280.01 370.67,-287.81 381.14,-286.18 377.84,-280.01"/>
</g>
<!-- &#45;5024551532059376174 -->
<g id="node10" class="node">
<title>&#45;5024551532059376174</title>
<polygon fill="none" stroke="black" points="770,-180 303,-180 303,-144 770,-144 770,-180"/>
<text text-anchor="middle" x="536.5" y="-157" font-family="Helvetica,sans-Serif" font-size="20.00">Projection(ArrowStringConversion, playcount)</text>
</g>
<!-- &#45;5024551532059376174&#45;&gt;&#45;2604967604825742496 -->
<g id="edge12" class="edge">
<title>&#45;5024551532059376174&#45;&gt;&#45;2604967604825742496</title>
<path fill="none" stroke="black" d="M519.94,-180.3C511.82,-188.78 501.91,-199.14 493.03,-208.42"/>
<polygon fill="black" stroke="black" points="490.26,-206.25 485.87,-215.9 495.31,-211.09 490.26,-206.25"/>
</g>
<!-- 3906342417609587616 -->
<g id="node11" class="node">
<title>3906342417609587616</title>
<polygon fill="none" stroke="black" points="635.5,-108 175.5,-108 175.5,-72 635.5,-72 635.5,-108"/>
<text text-anchor="middle" x="405.5" y="-85" font-family="Helvetica,sans-Serif" font-size="20.00">ArrowStringConversion(FromMapProjectable)</text>
</g>
<!-- 3906342417609587616&#45;&gt;&#45;481267119369104845 -->
<g id="edge10" class="edge">
<title>3906342417609587616&#45;&gt;&#45;481267119369104845</title>
<path fill="none" stroke="black" d="M338.94,-108.06C321.15,-115.98 303.97,-127.46 293.5,-144 266.42,-186.77 297.13,-245.99 319.45,-279.4"/>
<polygon fill="black" stroke="black" points="316.63,-281.46 325.19,-287.7 322.39,-277.49 316.63,-281.46"/>
</g>
<!-- 3906342417609587616&#45;&gt;&#45;5024551532059376174 -->
<g id="edge13" class="edge">
<title>3906342417609587616&#45;&gt;&#45;5024551532059376174</title>
<path fill="none" stroke="black" d="M437.55,-108.12C454.99,-117.45 476.77,-129.08 495.44,-139.06"/>
<polygon fill="black" stroke="black" points="493.86,-142.18 504.33,-143.81 497.16,-136.01 493.86,-142.18"/>
</g>
<!-- 4350860259065416118 -->
<g id="node12" class="node">
<title>4350860259065416118</title>
<polygon fill="none" stroke="black" points="514,-36 297,-36 297,0 514,0 514,-36"/>
<text text-anchor="middle" x="405.5" y="-13" font-family="Helvetica,sans-Serif" font-size="20.00">FromMapProjectable</text>
</g>
<!-- 4350860259065416118&#45;&gt;3906342417609587616 -->
<g id="edge14" class="edge">
<title>4350860259065416118&#45;&gt;3906342417609587616</title>
<path fill="none" stroke="black" d="M405.5,-36.3C405.5,-44.02 405.5,-53.29 405.5,-61.89"/>
<polygon fill="black" stroke="black" points="402,-61.9 405.5,-71.9 409,-61.9 402,-61.9"/>
</g>
<!-- &#45;3326351574495659969 -->
<g id="node13" class="node">
<title>&#45;3326351574495659969</title>
<polygon fill="none" stroke="black" points="773,-540 518,-540 518,-504 773,-504 773,-540"/>
<text text-anchor="middle" x="645.5" y="-517" font-family="Helvetica,sans-Serif" font-size="20.00">PropertyMap(Projection)</text>
</g>
<!-- &#45;3326351574495659969&#45;&gt;&#45;407685482693614843 -->
<g id="edge6" class="edge">
<title>&#45;3326351574495659969&#45;&gt;&#45;407685482693614843</title>
<path fill="none" stroke="black" d="M570.79,-540.03C526.23,-550.2 469.51,-563.13 423.28,-573.67"/>
<polygon fill="black" stroke="black" points="422.25,-570.31 413.28,-575.95 423.8,-577.14 422.25,-570.31"/>
</g>
<!-- 544848313724801336&#45;&gt;&#45;3326351574495659969 -->
<g id="edge15" class="edge">
<title>544848313724801336&#45;&gt;&#45;3326351574495659969</title>
<path fill="none" stroke="black" d="M671.1,-468.3C667.23,-476.27 662.55,-485.9 658.26,-494.74"/>
<polygon fill="black" stroke="black" points="655.03,-493.37 653.81,-503.9 661.33,-496.43 655.03,-493.37"/>
</g>
</g>
</svg>
